<svg width="298" height="31" viewBox="0 0 298 31" fill="none" xmlns="http://www.w3.org/2000/svg">
<mask id="path-1-outside-1_391_777" maskUnits="userSpaceOnUse" x="-1" y="-1" width="300" height="33" fill="black">
<rect fill="white" x="-1" y="-1" width="300" height="33"/>
<path d="M0.0950003 30.37V0.759998C0.0950003 0.579998 0.155 0.429998 0.275 0.309998C0.425 0.189998 0.575 0.129998 0.725 0.129998H16.7C17.6 0.129998 18.44 0.309998 19.22 0.669999C20.03 0.999998 20.735 1.465 21.335 2.065C21.935 2.665 22.4 3.37 22.73 4.18C23.09 4.96 23.27 5.8 23.27 6.7V10.705C23.27 12.205 22.805 13.54 21.875 14.71L21.245 15.565L21.875 16.42C22.805 17.62 23.27 18.955 23.27 20.425V24.43C23.27 25.33 23.09 26.185 22.73 26.995C22.4 27.805 21.935 28.51 21.335 29.11C20.735 29.68 20.03 30.145 19.22 30.505C18.44 30.835 17.6 31 16.7 31H0.725C0.575 31 0.425 30.94 0.275 30.82C0.155 30.7 0.0950003 30.55 0.0950003 30.37ZM3.515 27.58H16.7C17.57 27.58 18.305 27.28 18.905 26.68C19.535 26.05 19.85 25.3 19.85 24.43V20.425C19.85 19.555 19.535 18.82 18.905 18.22C18.305 17.59 17.57 17.275 16.7 17.275H3.515V27.58ZM3.515 13.855H16.7C17.57 13.855 18.305 13.555 18.905 12.955C19.535 12.325 19.85 11.575 19.85 10.705V6.7C19.85 5.83 19.535 5.095 18.905 4.495C18.305 3.865 17.57 3.55 16.7 3.55H3.515V13.855ZM49.428 30.415L43.578 17.275H33.948V30.37C33.948 30.79 33.738 31 33.318 31H31.203C30.783 31 30.573 30.79 30.573 30.37V0.759998C30.573 0.339998 30.783 0.129998 31.203 0.129998H47.133C48.033 0.129998 48.873 0.309998 49.653 0.669999C50.463 0.999998 51.168 1.465 51.768 2.065C52.368 2.665 52.833 3.37 53.163 4.18C53.523 4.96 53.703 5.8 53.703 6.7V10.705C53.703 12.175 53.253 13.495 52.353 14.665C51.483 15.805 50.343 16.585 48.933 17.005L47.403 17.455L53.163 30.415C53.253 30.565 53.253 30.7 53.163 30.82C53.103 30.94 52.983 31 52.803 31H50.328C50.148 31 49.968 30.94 49.788 30.82C49.608 30.7 49.488 30.565 49.428 30.415ZM33.948 13.855H47.133C48.003 13.855 48.738 13.555 49.338 12.955C49.968 12.325 50.283 11.575 50.283 10.705V6.7C50.283 5.83 49.968 5.095 49.338 4.495C48.738 3.865 48.003 3.55 47.133 3.55H33.948V13.855ZM84.18 8.77C84.18 9.19 83.97 9.4 83.55 9.4H81.39C80.97 9.4 80.76 9.19 80.76 8.77V6.655C80.73 5.785 80.415 5.05 79.815 4.45C79.215 3.85 78.48 3.55 77.61 3.55H67.575C66.705 3.55 65.955 3.865 65.325 4.495C64.725 5.095 64.425 5.83 64.425 6.7V24.43C64.425 25.3 64.725 26.05 65.325 26.68C65.955 27.28 66.705 27.58 67.575 27.58H77.61C78.48 27.58 79.215 27.295 79.815 26.725C80.415 26.125 80.73 25.39 80.76 24.52V22.36C80.76 22.21 80.82 22.075 80.94 21.955C81.06 21.805 81.21 21.73 81.39 21.73H83.55C83.73 21.73 83.88 21.805 84 21.955C84.12 22.075 84.18 22.21 84.18 22.36V24.52C84.18 25.42 84 26.26 83.64 27.04C83.28 27.82 82.8 28.51 82.2 29.11C81.63 29.68 80.94 30.145 80.13 30.505C79.35 30.835 78.51 31 77.61 31H67.575C66.675 31 65.82 30.835 65.01 30.505C64.23 30.145 63.54 29.68 62.94 29.11C62.37 28.51 61.905 27.805 61.545 26.995C61.215 26.185 61.05 25.33 61.05 24.43V6.7C61.05 5.8 61.215 4.96 61.545 4.18C61.905 3.37 62.37 2.665 62.94 2.065C63.54 1.465 64.23 0.999998 65.01 0.669999C65.82 0.309998 66.675 0.129998 67.575 0.129998H77.61C78.51 0.129998 79.35 0.309998 80.13 0.669999C80.94 0.999998 81.63 1.465 82.2 2.065C82.8 2.635 83.28 3.325 83.64 4.135C84 4.915 84.18 5.755 84.18 6.655V8.77ZM121.915 24.43V22.36C121.915 22.21 121.975 22.075 122.095 21.955C122.245 21.805 122.395 21.73 122.545 21.73H124.705C124.885 21.73 125.035 21.805 125.155 21.955C125.275 22.075 125.335 22.21 125.335 22.36V24.43C125.335 25.3 125.635 26.05 126.235 26.68C126.865 27.28 127.615 27.58 128.485 27.58H138.52C139.39 27.58 140.125 27.28 140.725 26.68C141.355 26.05 141.67 25.3 141.67 24.43V20.425C141.67 19.555 141.355 18.82 140.725 18.22C140.125 17.59 139.39 17.275 138.52 17.275H128.485C127.585 17.275 126.73 17.11 125.92 16.78C125.14 16.42 124.45 15.955 123.85 15.385C123.25 14.785 122.77 14.08 122.41 13.27C122.08 12.46 121.915 11.605 121.915 10.705V6.7C121.915 5.8 122.08 4.96 122.41 4.18C122.77 3.37 123.25 2.665 123.85 2.065C124.45 1.465 125.14 0.999998 125.92 0.669999C126.73 0.309998 127.585 0.129998 128.485 0.129998H138.52C139.42 0.129998 140.26 0.309998 141.04 0.669999C141.85 0.999998 142.555 1.465 143.155 2.065C143.755 2.665 144.22 3.37 144.55 4.18C144.91 4.96 145.09 5.8 145.09 6.7V8.77C145.09 9.19 144.88 9.4 144.46 9.4H142.3C141.88 9.4 141.67 9.19 141.67 8.77V6.7C141.67 5.83 141.355 5.095 140.725 4.495C140.125 3.865 139.39 3.55 138.52 3.55H128.485C127.615 3.55 126.865 3.865 126.235 4.495C125.635 5.095 125.335 5.83 125.335 6.7V10.705C125.335 11.575 125.635 12.325 126.235 12.955C126.865 13.555 127.615 13.855 128.485 13.855H138.52C139.42 13.855 140.26 14.035 141.04 14.395C141.85 14.725 142.555 15.19 143.155 15.79C143.755 16.39 144.22 17.095 144.55 17.905C144.91 18.685 145.09 19.525 145.09 20.425V24.43C145.09 25.33 144.91 26.185 144.55 26.995C144.22 27.805 143.755 28.51 143.155 29.11C142.555 29.68 141.85 30.145 141.04 30.505C140.26 30.835 139.42 31 138.52 31H128.485C127.585 31 126.73 30.835 125.92 30.505C125.14 30.145 124.45 29.68 123.85 29.11C123.25 28.51 122.77 27.805 122.41 26.995C122.08 26.185 121.915 25.33 121.915 24.43ZM172.147 30.37V17.455L155.812 3.955V30.37C155.812 30.79 155.602 31 155.182 31H153.022C152.872 31 152.722 30.94 152.572 30.82C152.452 30.7 152.392 30.55 152.392 30.37V0.759998C152.392 0.579998 152.452 0.429998 152.572 0.309998C152.722 0.189998 152.872 0.129998 153.022 0.129998H156.037C156.457 0.129998 156.832 0.264998 157.162 0.534998L172.147 12.91V0.759998C172.147 0.339998 172.357 0.129998 172.777 0.129998H174.937C175.357 0.129998 175.567 0.339998 175.567 0.759998V30.37C175.567 30.79 175.357 31 174.937 31H172.777C172.357 31 172.147 30.79 172.147 30.37ZM183.499 30.37V28.21C183.499 28.06 183.559 27.925 183.679 27.805C183.799 27.655 183.949 27.58 184.129 27.58H192.769V3.55H184.129C183.709 3.55 183.499 3.34 183.499 2.92V0.759998C183.499 0.339998 183.709 0.129998 184.129 0.129998H204.784C205.204 0.129998 205.414 0.339998 205.414 0.759998V2.92C205.414 3.34 205.204 3.55 204.784 3.55H196.189V27.58H204.784C204.964 27.58 205.114 27.655 205.234 27.805C205.354 27.925 205.414 28.06 205.414 28.21V30.37C205.414 30.79 205.204 31 204.784 31H184.129C183.709 31 183.499 30.79 183.499 30.37ZM213.346 30.37V0.759998C213.346 0.579998 213.406 0.429998 213.526 0.309998C213.676 0.189998 213.826 0.129998 213.976 0.129998H229.951C230.851 0.129998 231.691 0.309998 232.471 0.669999C233.281 0.999998 233.986 1.465 234.586 2.065C235.186 2.665 235.651 3.37 235.981 4.18C236.341 4.96 236.521 5.8 236.521 6.7V10.705C236.521 11.605 236.341 12.46 235.981 13.27C235.651 14.08 235.186 14.785 234.586 15.385C233.986 15.955 233.281 16.42 232.471 16.78C231.691 17.11 230.851 17.275 229.951 17.275H216.766V30.37C216.766 30.79 216.556 31 216.136 31H213.976C213.826 31 213.676 30.94 213.526 30.82C213.406 30.7 213.346 30.55 213.346 30.37ZM216.766 13.855H229.951C230.821 13.855 231.556 13.555 232.156 12.955C232.786 12.325 233.101 11.575 233.101 10.705V6.7C233.101 5.83 232.786 5.095 232.156 4.495C231.556 3.865 230.821 3.55 229.951 3.55H216.766V13.855ZM244.543 30.37V0.759998C244.543 0.339998 244.753 0.129998 245.173 0.129998H266.143C266.563 0.129998 266.773 0.339998 266.773 0.759998V2.92C266.773 3.34 266.563 3.55 266.143 3.55H247.918V13.855H263.713C263.863 13.855 263.998 13.93 264.118 14.08C264.268 14.2 264.343 14.335 264.343 14.485V16.645C264.343 16.825 264.268 16.975 264.118 17.095C263.998 17.215 263.863 17.275 263.713 17.275H247.918V27.58H266.143C266.323 27.58 266.473 27.655 266.593 27.805C266.713 27.925 266.773 28.06 266.773 28.21V30.37C266.773 30.79 266.563 31 266.143 31H245.173C244.753 31 244.543 30.79 244.543 30.37ZM293.156 30.415L287.306 17.275H277.676V30.37C277.676 30.79 277.466 31 277.046 31H274.931C274.511 31 274.301 30.79 274.301 30.37V0.759998C274.301 0.339998 274.511 0.129998 274.931 0.129998H290.861C291.761 0.129998 292.601 0.309998 293.381 0.669999C294.191 0.999998 294.896 1.465 295.496 2.065C296.096 2.665 296.561 3.37 296.891 4.18C297.251 4.96 297.431 5.8 297.431 6.7V10.705C297.431 12.175 296.981 13.495 296.081 14.665C295.211 15.805 294.071 16.585 292.661 17.005L291.131 17.455L296.891 30.415C296.981 30.565 296.981 30.7 296.891 30.82C296.831 30.94 296.711 31 296.531 31H294.056C293.876 31 293.696 30.94 293.516 30.82C293.336 30.7 293.216 30.565 293.156 30.415ZM277.676 13.855H290.861C291.731 13.855 292.466 13.555 293.066 12.955C293.696 12.325 294.011 11.575 294.011 10.705V6.7C294.011 5.83 293.696 5.095 293.066 4.495C292.466 3.865 291.731 3.55 290.861 3.55H277.676V13.855Z"/>
</mask>
<path d="M0.0950003 30.37V0.759998C0.0950003 0.579998 0.155 0.429998 0.275 0.309998C0.425 0.189998 0.575 0.129998 0.725 0.129998H16.7C17.6 0.129998 18.44 0.309998 19.22 0.669999C20.03 0.999998 20.735 1.465 21.335 2.065C21.935 2.665 22.4 3.37 22.73 4.18C23.09 4.96 23.27 5.8 23.27 6.7V10.705C23.27 12.205 22.805 13.54 21.875 14.71L21.245 15.565L21.875 16.42C22.805 17.62 23.27 18.955 23.27 20.425V24.43C23.27 25.33 23.09 26.185 22.73 26.995C22.4 27.805 21.935 28.51 21.335 29.11C20.735 29.68 20.03 30.145 19.22 30.505C18.44 30.835 17.6 31 16.7 31H0.725C0.575 31 0.425 30.94 0.275 30.82C0.155 30.7 0.0950003 30.55 0.0950003 30.37ZM3.515 27.58H16.7C17.57 27.58 18.305 27.28 18.905 26.68C19.535 26.05 19.85 25.3 19.85 24.43V20.425C19.85 19.555 19.535 18.82 18.905 18.22C18.305 17.59 17.57 17.275 16.7 17.275H3.515V27.58ZM3.515 13.855H16.7C17.57 13.855 18.305 13.555 18.905 12.955C19.535 12.325 19.85 11.575 19.85 10.705V6.7C19.85 5.83 19.535 5.095 18.905 4.495C18.305 3.865 17.57 3.55 16.7 3.55H3.515V13.855ZM49.428 30.415L43.578 17.275H33.948V30.37C33.948 30.79 33.738 31 33.318 31H31.203C30.783 31 30.573 30.79 30.573 30.37V0.759998C30.573 0.339998 30.783 0.129998 31.203 0.129998H47.133C48.033 0.129998 48.873 0.309998 49.653 0.669999C50.463 0.999998 51.168 1.465 51.768 2.065C52.368 2.665 52.833 3.37 53.163 4.18C53.523 4.96 53.703 5.8 53.703 6.7V10.705C53.703 12.175 53.253 13.495 52.353 14.665C51.483 15.805 50.343 16.585 48.933 17.005L47.403 17.455L53.163 30.415C53.253 30.565 53.253 30.7 53.163 30.82C53.103 30.94 52.983 31 52.803 31H50.328C50.148 31 49.968 30.94 49.788 30.82C49.608 30.7 49.488 30.565 49.428 30.415ZM33.948 13.855H47.133C48.003 13.855 48.738 13.555 49.338 12.955C49.968 12.325 50.283 11.575 50.283 10.705V6.7C50.283 5.83 49.968 5.095 49.338 4.495C48.738 3.865 48.003 3.55 47.133 3.55H33.948V13.855ZM84.18 8.77C84.18 9.19 83.97 9.4 83.55 9.4H81.39C80.97 9.4 80.76 9.19 80.76 8.77V6.655C80.73 5.785 80.415 5.05 79.815 4.45C79.215 3.85 78.48 3.55 77.61 3.55H67.575C66.705 3.55 65.955 3.865 65.325 4.495C64.725 5.095 64.425 5.83 64.425 6.7V24.43C64.425 25.3 64.725 26.05 65.325 26.68C65.955 27.28 66.705 27.58 67.575 27.58H77.61C78.48 27.58 79.215 27.295 79.815 26.725C80.415 26.125 80.73 25.39 80.76 24.52V22.36C80.76 22.21 80.82 22.075 80.94 21.955C81.06 21.805 81.21 21.73 81.39 21.73H83.55C83.73 21.73 83.88 21.805 84 21.955C84.12 22.075 84.18 22.21 84.18 22.36V24.52C84.18 25.42 84 26.26 83.64 27.04C83.28 27.82 82.8 28.51 82.2 29.11C81.63 29.68 80.94 30.145 80.13 30.505C79.35 30.835 78.51 31 77.61 31H67.575C66.675 31 65.82 30.835 65.01 30.505C64.23 30.145 63.54 29.68 62.94 29.11C62.37 28.51 61.905 27.805 61.545 26.995C61.215 26.185 61.05 25.33 61.05 24.43V6.7C61.05 5.8 61.215 4.96 61.545 4.18C61.905 3.37 62.37 2.665 62.94 2.065C63.54 1.465 64.23 0.999998 65.01 0.669999C65.82 0.309998 66.675 0.129998 67.575 0.129998H77.61C78.51 0.129998 79.35 0.309998 80.13 0.669999C80.94 0.999998 81.63 1.465 82.2 2.065C82.8 2.635 83.28 3.325 83.64 4.135C84 4.915 84.18 5.755 84.18 6.655V8.77ZM121.915 24.43V22.36C121.915 22.21 121.975 22.075 122.095 21.955C122.245 21.805 122.395 21.73 122.545 21.73H124.705C124.885 21.73 125.035 21.805 125.155 21.955C125.275 22.075 125.335 22.21 125.335 22.36V24.43C125.335 25.3 125.635 26.05 126.235 26.68C126.865 27.28 127.615 27.58 128.485 27.58H138.52C139.39 27.58 140.125 27.28 140.725 26.68C141.355 26.05 141.67 25.3 141.67 24.43V20.425C141.67 19.555 141.355 18.82 140.725 18.22C140.125 17.59 139.39 17.275 138.52 17.275H128.485C127.585 17.275 126.73 17.11 125.92 16.78C125.14 16.42 124.45 15.955 123.85 15.385C123.25 14.785 122.77 14.08 122.41 13.27C122.08 12.46 121.915 11.605 121.915 10.705V6.7C121.915 5.8 122.08 4.96 122.41 4.18C122.77 3.37 123.25 2.665 123.85 2.065C124.45 1.465 125.14 0.999998 125.92 0.669999C126.73 0.309998 127.585 0.129998 128.485 0.129998H138.52C139.42 0.129998 140.26 0.309998 141.04 0.669999C141.85 0.999998 142.555 1.465 143.155 2.065C143.755 2.665 144.22 3.37 144.55 4.18C144.91 4.96 145.09 5.8 145.09 6.7V8.77C145.09 9.19 144.88 9.4 144.46 9.4H142.3C141.88 9.4 141.67 9.19 141.67 8.77V6.7C141.67 5.83 141.355 5.095 140.725 4.495C140.125 3.865 139.39 3.55 138.52 3.55H128.485C127.615 3.55 126.865 3.865 126.235 4.495C125.635 5.095 125.335 5.83 125.335 6.7V10.705C125.335 11.575 125.635 12.325 126.235 12.955C126.865 13.555 127.615 13.855 128.485 13.855H138.52C139.42 13.855 140.26 14.035 141.04 14.395C141.85 14.725 142.555 15.19 143.155 15.79C143.755 16.39 144.22 17.095 144.55 17.905C144.91 18.685 145.09 19.525 145.09 20.425V24.43C145.09 25.33 144.91 26.185 144.55 26.995C144.22 27.805 143.755 28.51 143.155 29.11C142.555 29.68 141.85 30.145 141.04 30.505C140.26 30.835 139.42 31 138.52 31H128.485C127.585 31 126.73 30.835 125.92 30.505C125.14 30.145 124.45 29.68 123.85 29.11C123.25 28.51 122.77 27.805 122.41 26.995C122.08 26.185 121.915 25.33 121.915 24.43ZM172.147 30.37V17.455L155.812 3.955V30.37C155.812 30.79 155.602 31 155.182 31H153.022C152.872 31 152.722 30.94 152.572 30.82C152.452 30.7 152.392 30.55 152.392 30.37V0.759998C152.392 0.579998 152.452 0.429998 152.572 0.309998C152.722 0.189998 152.872 0.129998 153.022 0.129998H156.037C156.457 0.129998 156.832 0.264998 157.162 0.534998L172.147 12.91V0.759998C172.147 0.339998 172.357 0.129998 172.777 0.129998H174.937C175.357 0.129998 175.567 0.339998 175.567 0.759998V30.37C175.567 30.79 175.357 31 174.937 31H172.777C172.357 31 172.147 30.79 172.147 30.37ZM183.499 30.37V28.21C183.499 28.06 183.559 27.925 183.679 27.805C183.799 27.655 183.949 27.58 184.129 27.58H192.769V3.55H184.129C183.709 3.55 183.499 3.34 183.499 2.92V0.759998C183.499 0.339998 183.709 0.129998 184.129 0.129998H204.784C205.204 0.129998 205.414 0.339998 205.414 0.759998V2.92C205.414 3.34 205.204 3.55 204.784 3.55H196.189V27.58H204.784C204.964 27.58 205.114 27.655 205.234 27.805C205.354 27.925 205.414 28.06 205.414 28.21V30.37C205.414 30.79 205.204 31 204.784 31H184.129C183.709 31 183.499 30.79 183.499 30.37ZM213.346 30.37V0.759998C213.346 0.579998 213.406 0.429998 213.526 0.309998C213.676 0.189998 213.826 0.129998 213.976 0.129998H229.951C230.851 0.129998 231.691 0.309998 232.471 0.669999C233.281 0.999998 233.986 1.465 234.586 2.065C235.186 2.665 235.651 3.37 235.981 4.18C236.341 4.96 236.521 5.8 236.521 6.7V10.705C236.521 11.605 236.341 12.46 235.981 13.27C235.651 14.08 235.186 14.785 234.586 15.385C233.986 15.955 233.281 16.42 232.471 16.78C231.691 17.11 230.851 17.275 229.951 17.275H216.766V30.37C216.766 30.79 216.556 31 216.136 31H213.976C213.826 31 213.676 30.94 213.526 30.82C213.406 30.7 213.346 30.55 213.346 30.37ZM216.766 13.855H229.951C230.821 13.855 231.556 13.555 232.156 12.955C232.786 12.325 233.101 11.575 233.101 10.705V6.7C233.101 5.83 232.786 5.095 232.156 4.495C231.556 3.865 230.821 3.55 229.951 3.55H216.766V13.855ZM244.543 30.37V0.759998C244.543 0.339998 244.753 0.129998 245.173 0.129998H266.143C266.563 0.129998 266.773 0.339998 266.773 0.759998V2.92C266.773 3.34 266.563 3.55 266.143 3.55H247.918V13.855H263.713C263.863 13.855 263.998 13.93 264.118 14.08C264.268 14.2 264.343 14.335 264.343 14.485V16.645C264.343 16.825 264.268 16.975 264.118 17.095C263.998 17.215 263.863 17.275 263.713 17.275H247.918V27.58H266.143C266.323 27.58 266.473 27.655 266.593 27.805C266.713 27.925 266.773 28.06 266.773 28.21V30.37C266.773 30.79 266.563 31 266.143 31H245.173C244.753 31 244.543 30.79 244.543 30.37ZM293.156 30.415L287.306 17.275H277.676V30.37C277.676 30.79 277.466 31 277.046 31H274.931C274.511 31 274.301 30.79 274.301 30.37V0.759998C274.301 0.339998 274.511 0.129998 274.931 0.129998H290.861C291.761 0.129998 292.601 0.309998 293.381 0.669999C294.191 0.999998 294.896 1.465 295.496 2.065C296.096 2.665 296.561 3.37 296.891 4.18C297.251 4.96 297.431 5.8 297.431 6.7V10.705C297.431 12.175 296.981 13.495 296.081 14.665C295.211 15.805 294.071 16.585 292.661 17.005L291.131 17.455L296.891 30.415C296.981 30.565 296.981 30.7 296.891 30.82C296.831 30.94 296.711 31 296.531 31H294.056C293.876 31 293.696 30.94 293.516 30.82C293.336 30.7 293.216 30.565 293.156 30.415ZM277.676 13.855H290.861C291.731 13.855 292.466 13.555 293.066 12.955C293.696 12.325 294.011 11.575 294.011 10.705V6.7C294.011 5.83 293.696 5.095 293.066 4.495C292.466 3.865 291.731 3.55 290.861 3.55H277.676V13.855Z" fill="#0D0620"/>
<path d="M0.275 0.309999L-0.349696 -0.47087L-0.392944 -0.436271L-0.432107 -0.397108L0.275 0.309999ZM19.22 0.669999L18.8009 1.57796L18.8216 1.5875L18.8427 1.59609L19.22 0.669999ZM21.335 2.065L20.6279 2.77211V2.77211L21.335 2.065ZM22.73 4.18L21.8039 4.5573L21.8125 4.57838L21.822 4.59906L22.73 4.18ZM21.875 14.71L21.0922 14.0878L21.0808 14.1021L21.0699 14.1168L21.875 14.71ZM21.245 15.565L20.4399 14.9718L20.0029 15.565L20.4399 16.1582L21.245 15.565ZM21.875 16.42L21.0699 17.0132L21.0771 17.023L21.0846 17.0326L21.875 16.42ZM22.73 26.995L21.8162 26.5889L21.8098 26.6032L21.8039 26.6177L22.73 26.995ZM21.335 29.11L22.0238 29.835L22.033 29.8262L22.0421 29.8171L21.335 29.11ZM19.22 30.505L19.6096 31.426L19.6179 31.4225L19.6261 31.4188L19.22 30.505ZM0.275 30.82L-0.432106 31.5271L-0.392943 31.5663L-0.349695 31.6009L0.275 30.82ZM3.515 27.58H2.515V28.58H3.515V27.58ZM18.905 26.68L18.1979 25.9729L18.905 26.68ZM18.905 18.22L18.1809 18.9097L18.1977 18.9273L18.2153 18.9441L18.905 18.22ZM3.515 17.275V16.275H2.515V17.275H3.515ZM3.515 13.855H2.515V14.855H3.515V13.855ZM18.905 12.955L18.1979 12.2479L18.905 12.955ZM18.905 4.495L18.1809 5.18465L18.1977 5.20232L18.2153 5.21914L18.905 4.495ZM3.515 3.55V2.55H2.515V3.55H3.515ZM1.095 30.37V0.759997H-0.905V30.37H1.095ZM1.095 0.759997C1.095 0.782716 1.09083 0.828012 1.06848 0.883889C1.04566 0.940933 1.01295 0.986264 0.982108 1.0171L-0.432107 -0.397108C-0.751901 -0.0773134 -0.905 0.332636 -0.905 0.759997H1.095ZM0.899696 1.09087C0.912021 1.08101 0.902942 1.09085 0.871392 1.10347C0.837442 1.11705 0.786738 1.13 0.725 1.13V-0.870002C0.290743 -0.870002 -0.0728881 -0.692317 -0.349696 -0.47087L0.899696 1.09087ZM0.725 1.13H16.7V-0.870002H0.725V1.13ZM16.7 1.13C17.4624 1.13 18.1586 1.28148 18.8009 1.57796L19.6391 -0.23796C18.7214 -0.661489 17.7376 -0.870002 16.7 -0.870002V1.13ZM18.8427 1.59609C19.5332 1.87739 20.1251 2.26927 20.6279 2.77211L22.0421 1.35789C21.3449 0.660727 20.5268 0.12261 19.5973 -0.256094L18.8427 1.59609ZM20.6279 2.77211C21.1307 3.27494 21.5226 3.86684 21.8039 4.5573L23.6561 3.8027C23.2774 2.87315 22.7393 2.05506 22.0421 1.35789L20.6279 2.77211ZM21.822 4.59906C22.1185 5.24141 22.27 5.93764 22.27 6.7H24.27C24.27 5.66236 24.0615 4.67858 23.638 3.76094L21.822 4.59906ZM22.27 6.7V10.705H24.27V6.7H22.27ZM22.27 10.705C22.27 11.9799 21.881 13.0954 21.0922 14.0878L22.6578 15.3322C23.729 13.9846 24.27 12.4301 24.27 10.705H22.27ZM21.0699 14.1168L20.4399 14.9718L22.0501 16.1582L22.6801 15.3032L21.0699 14.1168ZM20.4399 16.1582L21.0699 17.0132L22.6801 15.8268L22.0501 14.9718L20.4399 16.1582ZM21.0846 17.0326C21.8835 18.0635 22.27 19.1845 22.27 20.425H24.27C24.27 18.7255 23.7265 17.1765 22.6654 15.8074L21.0846 17.0326ZM22.27 20.425V24.43H24.27V20.425H22.27ZM22.27 24.43C22.27 25.1923 22.1185 25.9087 21.8162 26.5889L23.6438 27.4011C24.0615 26.4613 24.27 25.4677 24.27 24.43H22.27ZM21.8039 26.6177C21.5226 27.3082 21.1307 27.9001 20.6279 28.4029L22.0421 29.8171C22.7393 29.1199 23.2774 28.3018 23.6561 27.3723L21.8039 26.6177ZM20.6463 28.385C20.1347 28.871 19.527 29.2742 18.8139 29.5912L19.6261 31.4188C20.533 31.0158 21.3353 30.489 22.0238 29.835L20.6463 28.385ZM18.8304 29.584C18.1812 29.8587 17.4746 30 16.7 30V32C17.7254 32 18.6988 31.8113 19.6096 31.426L18.8304 29.584ZM16.7 30H0.725V32H16.7V30ZM0.725 30C0.786738 30 0.837442 30.0129 0.871391 30.0265C0.902941 30.0391 0.91202 30.049 0.899696 30.0391L-0.349695 31.6009C-0.0728874 31.8223 0.290744 32 0.725 32V30ZM0.982107 30.1129C1.01295 30.1437 1.04566 30.1891 1.06848 30.2461C1.09083 30.302 1.095 30.3473 1.095 30.37H-0.905C-0.905 30.7974 -0.751902 31.2073 -0.432106 31.5271L0.982107 30.1129ZM3.515 28.58H16.7V26.58H3.515V28.58ZM16.7 28.58C17.8277 28.58 18.8193 28.1799 19.6121 27.3871L18.1979 25.9729C17.7907 26.3801 17.3123 26.58 16.7 26.58V28.58ZM19.6121 27.3871C20.4246 26.5746 20.85 25.5723 20.85 24.43H18.85C18.85 25.0277 18.6454 25.5254 18.1979 25.9729L19.6121 27.3871ZM20.85 24.43V20.425H18.85V24.43H20.85ZM20.85 20.425C20.85 19.2813 20.4228 18.2846 19.5947 17.4959L18.2153 18.9441C18.6472 19.3554 18.85 19.8287 18.85 20.425H20.85ZM19.6291 17.5303C18.8404 16.7022 17.8437 16.275 16.7 16.275V18.275C17.2963 18.275 17.7696 18.4778 18.1809 18.9097L19.6291 17.5303ZM16.7 16.275H3.515V18.275H16.7V16.275ZM2.515 17.275V27.58H4.515V17.275H2.515ZM3.515 14.855H16.7V12.855H3.515V14.855ZM16.7 14.855C17.8277 14.855 18.8193 14.4549 19.6121 13.6621L18.1979 12.2479C17.7907 12.6551 17.3123 12.855 16.7 12.855V14.855ZM19.6121 13.6621C20.4246 12.8496 20.85 11.8473 20.85 10.705H18.85C18.85 11.3027 18.6454 11.8004 18.1979 12.2479L19.6121 13.6621ZM20.85 10.705V6.7H18.85V10.705H20.85ZM20.85 6.7C20.85 5.55632 20.4228 4.5596 19.5947 3.77086L18.2153 5.21914C18.6472 5.63039 18.85 6.10368 18.85 6.7H20.85ZM19.6291 3.80534C18.8404 2.97716 17.8437 2.55 16.7 2.55V4.55C17.2963 4.55 17.7696 4.75283 18.1809 5.18465L19.6291 3.80534ZM16.7 2.55H3.515V4.55H16.7V2.55ZM2.515 3.55V13.855H4.515V3.55H2.515ZM49.428 30.415L50.3565 30.0436L50.3494 30.0258L50.3416 30.0083L49.428 30.415ZM43.578 17.275L44.4916 16.8683L44.2274 16.275H43.578V17.275ZM33.948 17.275V16.275H32.948V17.275H33.948ZM49.653 0.669999L49.234 1.57796L49.2546 1.5875L49.2757 1.59609L49.653 0.669999ZM51.768 2.065L51.0609 2.77211V2.77211L51.768 2.065ZM53.163 4.18L52.2369 4.5573L52.2455 4.57838L52.2551 4.59906L53.163 4.18ZM52.353 14.665L51.5604 14.0553L51.5581 14.0583L52.353 14.665ZM48.933 17.005L49.2152 17.9644L49.2185 17.9634L48.933 17.005ZM47.403 17.455L47.1208 16.4956L46.0255 16.8178L46.4892 17.8611L47.403 17.455ZM53.163 30.415L52.2492 30.8211L52.274 30.877L52.3055 30.9295L53.163 30.415ZM53.163 30.82L52.363 30.22L52.3089 30.2921L52.2686 30.3728L53.163 30.82ZM49.788 30.82L50.3427 29.9879H50.3427L49.788 30.82ZM33.948 13.855H32.948V14.855H33.948V13.855ZM49.338 12.955L48.6309 12.2479L49.338 12.955ZM49.338 4.495L48.6139 5.18465L48.6307 5.20232L48.6484 5.21914L49.338 4.495ZM33.948 3.55V2.55H32.948V3.55H33.948ZM50.3416 30.0083L44.4916 16.8683L42.6645 17.6817L48.5145 30.8217L50.3416 30.0083ZM43.578 16.275H33.948V18.275H43.578V16.275ZM32.948 17.275V30.37H34.948V17.275H32.948ZM32.948 30.37C32.948 30.4259 32.9347 30.2841 33.0834 30.1354C33.2321 29.9867 33.3739 30 33.318 30V32C33.6822 32 34.1389 31.9083 34.4976 31.5496C34.8563 31.1909 34.948 30.7341 34.948 30.37H32.948ZM33.318 30H31.203V32H33.318V30ZM31.203 30C31.1472 30 31.2889 29.9867 31.4376 30.1354C31.5863 30.2841 31.573 30.4259 31.573 30.37H29.573C29.573 30.7341 29.6647 31.1909 30.0234 31.5496C30.3821 31.9083 30.8389 32 31.203 32V30ZM31.573 30.37V0.759997H29.573V30.37H31.573ZM31.573 0.759997C31.573 0.704143 31.5863 0.845924 31.4376 0.994604C31.2889 1.14328 31.1472 1.13 31.203 1.13V-0.870002C30.8389 -0.870002 30.3821 -0.778289 30.0234 -0.419609C29.6647 -0.0609293 29.573 0.395853 29.573 0.759997H31.573ZM31.203 1.13H47.133V-0.870002H31.203V1.13ZM47.133 1.13C47.8954 1.13 48.5916 1.28148 49.234 1.57796L50.0721 -0.23796C49.1544 -0.661489 48.1707 -0.870002 47.133 -0.870002V1.13ZM49.2757 1.59609C49.9662 1.87739 50.5581 2.26927 51.0609 2.77211L52.4751 1.35789C51.778 0.660727 50.9599 0.12261 50.0303 -0.256094L49.2757 1.59609ZM51.0609 2.77211C51.5637 3.27494 51.9556 3.86684 52.2369 4.5573L54.0891 3.8027C53.7104 2.87315 53.1723 2.05506 52.4751 1.35789L51.0609 2.77211ZM52.2551 4.59906C52.5515 5.24141 52.703 5.93764 52.703 6.7H54.703C54.703 5.66236 54.4945 4.67858 54.071 3.76094L52.2551 4.59906ZM52.703 6.7V10.705H54.703V6.7H52.703ZM52.703 10.705C52.703 11.9535 52.3265 13.0593 51.5604 14.0553L53.1456 15.2747C54.1795 13.9307 54.703 12.3965 54.703 10.705H52.703ZM51.5581 14.0583C50.8199 15.0255 49.8604 15.6853 48.6475 16.0466L49.2185 17.9634C50.8256 17.4847 52.1461 16.5845 53.148 15.2717L51.5581 14.0583ZM48.6508 16.0456L47.1208 16.4956L47.6852 18.4144L49.2152 17.9644L48.6508 16.0456ZM46.4892 17.8611L52.2492 30.8211L54.0768 30.0089L48.3168 17.0489L46.4892 17.8611ZM52.3055 30.9295C52.2843 30.8941 52.2305 30.7887 52.2305 30.6287C52.2305 30.4559 52.2934 30.3129 52.363 30.22L53.963 31.42C54.1227 31.2071 54.2305 30.9366 54.2305 30.6287C54.2305 30.3338 54.1317 30.0859 54.0205 29.9005L52.3055 30.9295ZM52.2686 30.3728C52.3354 30.2393 52.4473 30.1273 52.5808 30.0606C52.6988 30.0016 52.7884 30 52.803 30V32C53.2108 32 53.7697 31.8427 54.0574 31.2672L52.2686 30.3728ZM52.803 30H50.328V32H52.803V30ZM50.328 30C50.3388 30 50.3488 30.0009 50.3574 30.0024C50.3659 30.0038 50.3717 30.0055 50.3742 30.0063C50.3794 30.008 50.3689 30.0054 50.3427 29.9879L49.2333 31.6521C49.5439 31.8591 49.9137 32 50.328 32V30ZM50.3427 29.9879C50.3103 29.9663 50.3037 29.9569 50.3104 29.9644C50.3183 29.9732 50.3388 29.9993 50.3565 30.0436L48.4995 30.7864C48.6563 31.1783 48.941 31.4572 49.2333 31.6521L50.3427 29.9879ZM33.948 14.855H47.133V12.855H33.948V14.855ZM47.133 14.855C48.2607 14.855 49.2523 14.4549 50.0451 13.6621L48.6309 12.2479C48.2237 12.6551 47.7453 12.855 47.133 12.855V14.855ZM50.0451 13.6621C50.8576 12.8496 51.283 11.8473 51.283 10.705H49.283C49.283 11.3027 49.0784 11.8004 48.6309 12.2479L50.0451 13.6621ZM51.283 10.705V6.7H49.283V10.705H51.283ZM51.283 6.7C51.283 5.55632 50.8558 4.5596 50.0277 3.77086L48.6484 5.21914C49.0802 5.63039 49.283 6.10368 49.283 6.7H51.283ZM50.0621 3.80534C49.2734 2.97716 48.2767 2.55 47.133 2.55V4.55C47.7293 4.55 48.2026 4.75283 48.6139 5.18465L50.0621 3.80534ZM47.133 2.55H33.948V4.55H47.133V2.55ZM32.948 3.55V13.855H34.948V3.55H32.948ZM80.76 6.655H81.76V6.63776L81.7594 6.62054L80.76 6.655ZM79.815 4.45L79.1079 5.15711V5.15711L79.815 4.45ZM65.325 4.495L64.6179 3.78789L64.6179 3.78789L65.325 4.495ZM65.325 26.68L64.6008 27.3697L64.6176 27.3873L64.6353 27.4041L65.325 26.68ZM79.815 26.725L80.5037 27.45L80.513 27.4412L80.5221 27.4321L79.815 26.725ZM80.76 24.52L81.7594 24.5545L81.76 24.5372V24.52H80.76ZM80.94 21.955L81.6471 22.6621L81.6862 22.6229L81.7208 22.5797L80.94 21.955ZM84 21.955L83.2191 22.5797L83.2537 22.6229L83.2929 22.6621L84 21.955ZM83.64 27.04L84.5479 27.4591L83.64 27.04ZM82.2 29.11L82.9071 29.8171L82.2 29.11ZM80.13 30.505L80.5196 31.426L80.5279 31.4225L80.5361 31.4188L80.13 30.505ZM65.01 30.505L64.5909 31.413L64.6116 31.4225L64.6327 31.4311L65.01 30.505ZM62.94 29.11L62.215 29.7987L62.2326 29.8173L62.2512 29.835L62.94 29.11ZM61.545 26.995L60.6189 27.3723L60.6248 27.3868L60.6311 27.4011L61.545 26.995ZM61.545 4.18L60.6311 3.77386L60.6275 3.78208L60.624 3.79036L61.545 4.18ZM62.94 2.065L62.2329 1.35789L62.2238 1.36696L62.215 1.37625L62.94 2.065ZM65.01 0.669999L65.3996 1.59097L65.4079 1.58746L65.4161 1.58381L65.01 0.669999ZM80.13 0.669999L79.7109 1.57796L79.7316 1.5875L79.7527 1.59609L80.13 0.669999ZM82.2 2.065L81.475 2.75375L81.4926 2.77234L81.5112 2.79L82.2 2.065ZM83.64 4.135L82.7262 4.54114L82.729 4.54762L82.732 4.55406L83.64 4.135ZM83.18 8.77C83.18 8.82586 83.1667 8.68407 83.3154 8.53539C83.464 8.38671 83.6058 8.4 83.55 8.4V10.4C83.9141 10.4 84.3709 10.3083 84.7296 9.94961C85.0882 9.59093 85.18 9.13414 85.18 8.77H83.18ZM83.55 8.4H81.39V10.4H83.55V8.4ZM81.39 8.4C81.3341 8.4 81.4759 8.38671 81.6246 8.53539C81.7732 8.68407 81.76 8.82586 81.76 8.77H79.76C79.76 9.13414 79.8517 9.59093 80.2104 9.94961C80.569 10.3083 81.0258 10.4 81.39 10.4V8.4ZM81.76 8.77V6.655H79.76V8.77H81.76ZM81.7594 6.62054C81.7209 5.50466 81.3063 4.52707 80.5221 3.74289L79.1079 5.15711C79.5237 5.57292 79.739 6.06533 79.7606 6.68946L81.7594 6.62054ZM80.5221 3.74289C79.7293 2.95011 78.7377 2.55 77.61 2.55V4.55C78.2223 4.55 78.7006 4.74989 79.1079 5.15711L80.5221 3.74289ZM77.61 2.55H67.575V4.55H77.61V2.55ZM67.575 2.55C66.4327 2.55 65.4303 2.97542 64.6179 3.78789L66.0321 5.20211C66.4796 4.75458 66.9772 4.55 67.575 4.55V2.55ZM64.6179 3.78789C63.8251 4.58068 63.425 5.5723 63.425 6.7H65.425C65.425 6.0877 65.6249 5.60932 66.0321 5.2021L64.6179 3.78789ZM63.425 6.7V24.43H65.425V6.7H63.425ZM63.425 24.43C63.425 25.5568 63.8237 26.5537 64.6008 27.3697L66.0491 25.9903C65.6262 25.5463 65.425 25.0432 65.425 24.43H63.425ZM64.6353 27.4041C65.4512 28.1812 66.4482 28.58 67.575 28.58V26.58C66.9617 26.58 66.4587 26.3788 66.0146 25.9559L64.6353 27.4041ZM67.575 28.58H77.61V26.58H67.575V28.58ZM77.61 28.58C78.7218 28.58 79.7076 28.2063 80.5037 27.45L79.1262 26C78.7223 26.3837 78.2381 26.58 77.61 26.58V28.58ZM80.5221 27.4321C81.3063 26.6479 81.7209 25.6703 81.7594 24.5545L79.7606 24.4855C79.739 25.1097 79.5237 25.6021 79.1079 26.0179L80.5221 27.4321ZM81.76 24.52V22.36H79.76V24.52H81.76ZM81.76 22.36C81.76 22.4227 81.7465 22.49 81.7188 22.5524C81.6921 22.6124 81.6611 22.6481 81.6471 22.6621L80.2329 21.2479C79.9522 21.5286 79.76 21.9091 79.76 22.36H81.76ZM81.7208 22.5797C81.7036 22.6013 81.6617 22.6447 81.5897 22.6807C81.5158 22.7176 81.4436 22.73 81.39 22.73V20.73C80.8834 20.73 80.4542 20.9614 80.1591 21.3303L81.7208 22.5797ZM81.39 22.73H83.55V20.73H81.39V22.73ZM83.55 22.73C83.4964 22.73 83.4242 22.7176 83.3503 22.6807C83.2783 22.6447 83.2364 22.6013 83.2191 22.5797L84.7808 21.3303C84.4857 20.9614 84.0565 20.73 83.55 20.73V22.73ZM83.2929 22.6621C83.2788 22.6481 83.2478 22.6124 83.2211 22.5524C83.1934 22.49 83.18 22.4227 83.18 22.36H85.18C85.18 21.9091 84.9878 21.5286 84.7071 21.2479L83.2929 22.6621ZM83.18 22.36V24.52H85.18V22.36H83.18ZM83.18 24.52C83.18 25.2824 83.0285 25.9786 82.732 26.6209L84.5479 27.4591C84.9715 26.5414 85.18 25.5576 85.18 24.52H83.18ZM82.732 26.6209C82.4208 27.2952 82.0084 27.8874 81.4929 28.4029L82.9071 29.8171C83.5915 29.1326 84.1391 28.3448 84.5479 27.4591L82.732 26.6209ZM81.4929 28.4029C81.0179 28.8779 80.4328 29.2761 79.7238 29.5912L80.5361 31.4188C81.4471 31.0139 82.242 30.4821 82.9071 29.8171L81.4929 28.4029ZM79.7403 29.584C79.0912 29.8587 78.3846 30 77.61 30V32C78.6353 32 79.6087 31.8113 80.5196 31.426L79.7403 29.584ZM77.61 30H67.575V32H77.61V30ZM67.575 30C66.8005 30 66.074 29.8587 65.3873 29.5789L64.6327 31.4311C65.566 31.8113 66.5494 32 67.575 32V30ZM65.429 29.597C64.7445 29.2811 64.1464 28.8768 63.6287 28.385L62.2512 29.835C62.9335 30.4832 63.7154 31.0089 64.5909 31.413L65.429 29.597ZM63.665 28.4212C63.179 27.9097 62.7757 27.302 62.4588 26.5889L60.6311 27.4011C61.0342 28.308 61.5609 29.1103 62.215 29.7987L63.665 28.4212ZM62.4711 26.6177C62.1913 25.931 62.05 25.2045 62.05 24.43H60.05C60.05 25.4555 60.2386 26.439 60.6189 27.3723L62.4711 26.6177ZM62.05 24.43V6.7H60.05V24.43H62.05ZM62.05 6.7C62.05 5.92535 62.1913 5.21875 62.4659 4.56964L60.624 3.79036C60.2386 4.70124 60.05 5.67465 60.05 6.7H62.05ZM62.4588 4.58614C62.7757 3.87298 63.179 3.2653 63.665 2.75375L62.215 1.37625C61.5609 2.06469 61.0342 2.86701 60.6311 3.77386L62.4588 4.58614ZM63.6471 2.77211C64.1562 2.26299 64.7384 1.87069 65.3996 1.59097L64.6203 -0.250969C63.7215 0.129307 62.9237 0.667004 62.2329 1.35789L63.6471 2.77211ZM65.4161 1.58381C66.0962 1.28153 66.8127 1.13 67.575 1.13V-0.870002C66.5373 -0.870002 65.5437 -0.66153 64.6038 -0.243813L65.4161 1.58381ZM67.575 1.13H77.61V-0.870002H67.575V1.13ZM77.61 1.13C78.3723 1.13 79.0685 1.28148 79.7109 1.57796L80.549 -0.23796C79.6314 -0.661489 78.6476 -0.870002 77.61 -0.870002V1.13ZM79.7527 1.59609C80.4389 1.87565 81.0082 2.26244 81.475 2.75375L82.925 1.37625C82.2517 0.667555 81.4411 0.124346 80.5073 -0.256094L79.7527 1.59609ZM81.5112 2.79C82.0094 3.26324 82.4157 3.84255 82.7262 4.54114L84.5538 3.72886C84.1443 2.80745 83.5906 2.00676 82.8887 1.34L81.5112 2.79ZM82.732 4.55406C83.0285 5.19641 83.18 5.89264 83.18 6.655H85.18C85.18 5.61736 84.9715 4.63358 84.5479 3.71594L82.732 4.55406ZM83.18 6.655V8.77H85.18V6.655H83.18ZM122.095 21.955L122.802 22.6621V22.6621L122.095 21.955ZM125.155 21.955L124.374 22.5797L124.409 22.6229L124.448 22.6621L125.155 21.955ZM126.235 26.68L125.511 27.3697L125.528 27.3873L125.545 27.4041L126.235 26.68ZM140.725 26.68L140.018 25.9729L140.725 26.68ZM140.725 18.22L140.001 18.9097L140.018 18.9273L140.035 18.9441L140.725 18.22ZM125.92 16.78L125.501 17.688L125.522 17.6975L125.543 17.7061L125.92 16.78ZM123.85 15.385L123.143 16.0921L123.152 16.1012L123.161 16.11L123.85 15.385ZM122.41 13.27L121.484 13.6473L121.49 13.6618L121.496 13.6761L122.41 13.27ZM122.41 4.18L121.496 3.77386L121.492 3.78208L121.489 3.79036L122.41 4.18ZM123.85 2.065L124.557 2.77211V2.77211L123.85 2.065ZM125.92 0.669999L126.31 1.59097L126.318 1.58746L126.326 1.58381L125.92 0.669999ZM141.04 0.669999L140.621 1.57796L140.642 1.5875L140.663 1.59609L141.04 0.669999ZM143.155 2.065L142.448 2.77211V2.77211L143.155 2.065ZM144.55 4.18L143.624 4.5573L143.632 4.57838L143.642 4.59906L144.55 4.18ZM140.725 4.495L140.001 5.18465L140.018 5.20232L140.035 5.21914L140.725 4.495ZM126.235 4.495L125.528 3.78789V3.78789L126.235 4.495ZM126.235 12.955L125.511 13.6447L125.528 13.6623L125.545 13.6791L126.235 12.955ZM141.04 14.395L140.621 15.303L140.642 15.3125L140.663 15.3211L141.04 14.395ZM143.155 15.79L143.862 15.0829V15.0829L143.155 15.79ZM144.55 17.905L143.624 18.2823L143.632 18.3034L143.642 18.3241L144.55 17.905ZM144.55 26.995L143.636 26.5889L143.63 26.6032L143.624 26.6177L144.55 26.995ZM143.155 29.11L143.844 29.835L143.853 29.8262L143.862 29.8171L143.155 29.11ZM141.04 30.505L141.43 31.426L141.438 31.4225L141.446 31.4188L141.04 30.505ZM125.92 30.505L125.501 31.413L125.522 31.4225L125.543 31.4311L125.92 30.505ZM123.85 29.11L123.143 29.8171L123.152 29.8262L123.161 29.835L123.85 29.11ZM122.41 26.995L121.484 27.3723L121.49 27.3868L121.496 27.4011L122.41 26.995ZM122.915 24.43V22.36H120.915V24.43H122.915ZM122.915 22.36C122.915 22.4227 122.901 22.49 122.874 22.5524C122.847 22.6124 122.816 22.6481 122.802 22.6621L121.388 21.2479C121.107 21.5286 120.915 21.9091 120.915 22.36H122.915ZM122.802 22.6621C122.82 22.6439 122.81 22.6593 122.767 22.6807C122.72 22.7043 122.643 22.73 122.545 22.73V20.73C122.036 20.73 121.647 20.9889 121.388 21.2479L122.802 22.6621ZM122.545 22.73H124.705V20.73H122.545V22.73ZM124.705 22.73C124.651 22.73 124.579 22.7176 124.505 22.6807C124.433 22.6447 124.391 22.6013 124.374 22.5797L125.936 21.3303C125.641 20.9614 125.211 20.73 124.705 20.73V22.73ZM124.448 22.6621C124.434 22.6481 124.403 22.6124 124.376 22.5524C124.348 22.49 124.335 22.4227 124.335 22.36H126.335C126.335 21.9091 126.143 21.5286 125.862 21.2479L124.448 22.6621ZM124.335 22.36V24.43H126.335V22.36H124.335ZM124.335 24.43C124.335 25.5568 124.734 26.5537 125.511 27.3697L126.959 25.9903C126.536 25.5463 126.335 25.0432 126.335 24.43H124.335ZM125.545 27.4041C126.361 28.1812 127.358 28.58 128.485 28.58V26.58C127.872 26.58 127.369 26.3788 126.925 25.9559L125.545 27.4041ZM128.485 28.58H138.52V26.58H128.485V28.58ZM138.52 28.58C139.648 28.58 140.639 28.1799 141.432 27.3871L140.018 25.9729C139.611 26.3801 139.132 26.58 138.52 26.58V28.58ZM141.432 27.3871C142.245 26.5746 142.67 25.5723 142.67 24.43H140.67C140.67 25.0277 140.465 25.5254 140.018 25.9729L141.432 27.3871ZM142.67 24.43V20.425H140.67V24.43H142.67ZM142.67 20.425C142.67 19.2813 142.243 18.2846 141.415 17.4959L140.035 18.9441C140.467 19.3554 140.67 19.8287 140.67 20.425H142.67ZM141.449 17.5303C140.66 16.7022 139.664 16.275 138.52 16.275V18.275C139.116 18.275 139.59 18.4778 140.001 18.9097L141.449 17.5303ZM138.52 16.275H128.485V18.275H138.52V16.275ZM128.485 16.275C127.71 16.275 126.984 16.1337 126.297 15.8539L125.543 17.7061C126.476 18.0863 127.459 18.275 128.485 18.275V16.275ZM126.339 15.872C125.654 15.5561 125.056 15.1518 124.539 14.66L123.161 16.11C123.843 16.7582 124.625 17.2839 125.501 17.688L126.339 15.872ZM124.557 14.6779C124.048 14.1685 123.636 13.5668 123.324 12.8639L121.496 13.6761C121.904 14.5932 122.452 15.4015 123.143 16.0921L124.557 14.6779ZM123.336 12.8927C123.056 12.206 122.915 11.4795 122.915 10.705H120.915C120.915 11.7305 121.104 12.714 121.484 13.6473L123.336 12.8927ZM122.915 10.705V6.7H120.915V10.705H122.915ZM122.915 6.7C122.915 5.92535 123.056 5.21875 123.331 4.56964L121.489 3.79036C121.104 4.70124 120.915 5.67465 120.915 6.7H122.915ZM123.324 4.58614C123.636 3.88322 124.048 3.28147 124.557 2.77211L123.143 1.35789C122.452 2.04852 121.904 2.85678 121.496 3.77386L123.324 4.58614ZM124.557 2.77211C125.066 2.26299 125.648 1.87069 126.31 1.59097L125.53 -0.250969C124.631 0.129307 123.834 0.667004 123.143 1.35789L124.557 2.77211ZM126.326 1.58381C127.006 1.28153 127.723 1.13 128.485 1.13V-0.870002C127.447 -0.870002 126.454 -0.66153 125.514 -0.243813L126.326 1.58381ZM128.485 1.13H138.52V-0.870002H128.485V1.13ZM138.52 1.13C139.282 1.13 139.979 1.28148 140.621 1.57796L141.459 -0.23796C140.541 -0.661489 139.558 -0.870002 138.52 -0.870002V1.13ZM140.663 1.59609C141.353 1.87739 141.945 2.26927 142.448 2.77211L143.862 1.35789C143.165 0.660727 142.347 0.12261 141.417 -0.256094L140.663 1.59609ZM142.448 2.77211C142.951 3.27494 143.343 3.86684 143.624 4.5573L145.476 3.8027C145.097 2.87315 144.559 2.05506 143.862 1.35789L142.448 2.77211ZM143.642 4.59906C143.938 5.24141 144.09 5.93764 144.09 6.7H146.09C146.09 5.66236 145.881 4.67858 145.458 3.76094L143.642 4.59906ZM144.09 6.7V8.77H146.09V6.7H144.09ZM144.09 8.77C144.09 8.82586 144.077 8.68407 144.225 8.53539C144.374 8.38671 144.516 8.4 144.46 8.4V10.4C144.824 10.4 145.281 10.3083 145.64 9.94961C145.998 9.59093 146.09 9.13414 146.09 8.77H144.09ZM144.46 8.4H142.3V10.4H144.46V8.4ZM142.3 8.4C142.244 8.4 142.386 8.38671 142.535 8.53539C142.683 8.68407 142.67 8.82586 142.67 8.77H140.67C140.67 9.13414 140.762 9.59093 141.12 9.94961C141.479 10.3083 141.936 10.4 142.3 10.4V8.4ZM142.67 8.77V6.7H140.67V8.77H142.67ZM142.67 6.7C142.67 5.55632 142.243 4.5596 141.415 3.77086L140.035 5.21914C140.467 5.63039 140.67 6.10368 140.67 6.7H142.67ZM141.449 3.80534C140.66 2.97716 139.664 2.55 138.52 2.55V4.55C139.116 4.55 139.59 4.75283 140.001 5.18465L141.449 3.80534ZM138.52 2.55H128.485V4.55H138.52V2.55ZM128.485 2.55C127.343 2.55 126.34 2.97542 125.528 3.78789L126.942 5.20211C127.39 4.75458 127.887 4.55 128.485 4.55V2.55ZM125.528 3.78789C124.735 4.58068 124.335 5.5723 124.335 6.7H126.335C126.335 6.0877 126.535 5.60932 126.942 5.2021L125.528 3.78789ZM124.335 6.7V10.705H126.335V6.7H124.335ZM124.335 10.705C124.335 11.8318 124.734 12.8287 125.511 13.6447L126.959 12.2653C126.536 11.8213 126.335 11.3182 126.335 10.705H124.335ZM125.545 13.6791C126.361 14.4562 127.358 14.855 128.485 14.855V12.855C127.872 12.855 127.369 12.6538 126.925 12.2309L125.545 13.6791ZM128.485 14.855H138.52V12.855H128.485V14.855ZM138.52 14.855C139.282 14.855 139.979 15.0065 140.621 15.303L141.459 13.487C140.541 13.0635 139.558 12.855 138.52 12.855V14.855ZM140.663 15.3211C141.353 15.6024 141.945 15.9943 142.448 16.4971L143.862 15.0829C143.165 14.3857 142.347 13.8476 141.417 13.4689L140.663 15.3211ZM142.448 16.4971C142.951 16.9999 143.343 17.5918 143.624 18.2823L145.476 17.5277C145.097 16.5982 144.559 15.7801 143.862 15.0829L142.448 16.4971ZM143.642 18.3241C143.938 18.9664 144.09 19.6626 144.09 20.425H146.09C146.09 19.3874 145.881 18.4036 145.458 17.4859L143.642 18.3241ZM144.09 20.425V24.43H146.09V20.425H144.09ZM144.09 24.43C144.09 25.1923 143.938 25.9087 143.636 26.5889L145.464 27.4011C145.881 26.4613 146.09 25.4677 146.09 24.43H144.09ZM143.624 26.6177C143.343 27.3082 142.951 27.9001 142.448 28.4029L143.862 29.8171C144.559 29.1199 145.097 28.3018 145.476 27.3723L143.624 26.6177ZM142.466 28.385C141.955 28.871 141.347 29.2742 140.634 29.5912L141.446 31.4188C142.353 31.0158 143.155 30.489 143.844 29.835L142.466 28.385ZM140.65 29.584C140.001 29.8587 139.295 30 138.52 30V32C139.545 32 140.519 31.8113 141.43 31.426L140.65 29.584ZM138.52 30H128.485V32H138.52V30ZM128.485 30C127.71 30 126.984 29.8587 126.297 29.5789L125.543 31.4311C126.476 31.8113 127.459 32 128.485 32V30ZM126.339 29.597C125.654 29.2811 125.056 28.8768 124.539 28.385L123.161 29.835C123.843 30.4832 124.625 31.0089 125.501 31.413L126.339 29.597ZM124.557 28.4029C124.048 27.8935 123.636 27.2918 123.324 26.5889L121.496 27.4011C121.904 28.3182 122.452 29.1265 123.143 29.8171L124.557 28.4029ZM123.336 26.6177C123.056 25.931 122.915 25.2045 122.915 24.43H120.915C120.915 25.4555 121.104 26.439 121.484 27.3723L123.336 26.6177ZM172.147 17.455H173.147V16.9841L172.784 16.6842L172.147 17.455ZM155.812 3.955L156.449 3.18417L154.812 1.83124V3.955H155.812ZM152.572 30.82L151.865 31.5271L151.904 31.5663L151.947 31.6009L152.572 30.82ZM152.572 0.309999L151.947 -0.47087L151.904 -0.436271L151.865 -0.397108L152.572 0.309999ZM157.162 0.534998L157.799 -0.236071L157.795 -0.238959L157.162 0.534998ZM172.147 12.91L171.51 13.6811L173.147 15.0327V12.91H172.147ZM173.147 30.37V17.455H171.147V30.37H173.147ZM172.784 16.6842L156.449 3.18417L155.175 4.72583L171.51 18.2258L172.784 16.6842ZM154.812 3.955V30.37H156.812V3.955H154.812ZM154.812 30.37C154.812 30.4259 154.799 30.2841 154.947 30.1354C155.096 29.9867 155.238 30 155.182 30V32C155.546 32 156.003 31.9083 156.361 31.5496C156.72 31.1909 156.812 30.7341 156.812 30.37H154.812ZM155.182 30H153.022V32H155.182V30ZM153.022 30C153.084 30 153.134 30.0129 153.168 30.0265C153.2 30.0391 153.209 30.049 153.197 30.0391L151.947 31.6009C152.224 31.8223 152.588 32 153.022 32V30ZM153.279 30.1129C153.31 30.1437 153.343 30.1891 153.365 30.2461C153.388 30.302 153.392 30.3473 153.392 30.37H151.392C151.392 30.7974 151.545 31.2073 151.865 31.5271L153.279 30.1129ZM153.392 30.37V0.759997H151.392V30.37H153.392ZM153.392 0.759997C153.392 0.782716 153.388 0.828012 153.365 0.883889C153.343 0.940933 153.31 0.986264 153.279 1.0171L151.865 -0.397108C151.545 -0.0773134 151.392 0.332636 151.392 0.759997H153.392ZM153.197 1.09087C153.209 1.08101 153.2 1.09085 153.168 1.10347C153.134 1.11705 153.084 1.13 153.022 1.13V-0.870002C152.588 -0.870002 152.224 -0.692317 151.947 -0.47087L153.197 1.09087ZM153.022 1.13H156.037V-0.870002H153.022V1.13ZM156.037 1.13C156.222 1.13 156.374 1.18271 156.529 1.30896L157.795 -0.238959C157.289 -0.652716 156.692 -0.870002 156.037 -0.870002V1.13ZM156.525 1.30606L171.51 13.6811L172.784 12.1389L157.799 -0.236063L156.525 1.30606ZM173.147 12.91V0.759997H171.147V12.91H173.147ZM173.147 0.759997C173.147 0.704143 173.16 0.845924 173.011 0.994604C172.863 1.14328 172.721 1.13 172.777 1.13V-0.870002C172.413 -0.870002 171.956 -0.778289 171.597 -0.419609C171.239 -0.0609293 171.147 0.395853 171.147 0.759997H173.147ZM172.777 1.13H174.937V-0.870002H172.777V1.13ZM174.937 1.13C174.993 1.13 174.851 1.14328 174.702 0.994604C174.554 0.845924 174.567 0.704143 174.567 0.759997H176.567C176.567 0.395853 176.475 -0.0609293 176.116 -0.419609C175.758 -0.778289 175.301 -0.870002 174.937 -0.870002V1.13ZM174.567 0.759997V30.37H176.567V0.759997H174.567ZM174.567 30.37C174.567 30.4259 174.554 30.2841 174.702 30.1354C174.851 29.9867 174.993 30 174.937 30V32C175.301 32 175.758 31.9083 176.116 31.5496C176.475 31.1909 176.567 30.7341 176.567 30.37H174.567ZM174.937 30H172.777V32H174.937V30ZM172.777 30C172.721 30 172.863 29.9867 173.011 30.1354C173.16 30.2841 173.147 30.4259 173.147 30.37H171.147C171.147 30.7341 171.239 31.1909 171.597 31.5496C171.956 31.9083 172.413 32 172.777 32V30ZM183.679 27.805L184.386 28.5121L184.425 28.4729L184.46 28.4297L183.679 27.805ZM192.769 27.58V28.58H193.769V27.58H192.769ZM192.769 3.55H193.769V2.55H192.769V3.55ZM196.189 3.55V2.55H195.189V3.55H196.189ZM196.189 27.58H195.189V28.58H196.189V27.58ZM205.234 27.805L204.453 28.4297L204.488 28.4729L204.527 28.5121L205.234 27.805ZM184.499 30.37V28.21H182.499V30.37H184.499ZM184.499 28.21C184.499 28.2727 184.485 28.34 184.458 28.4024C184.431 28.4624 184.4 28.4981 184.386 28.5121L182.972 27.0979C182.691 27.3786 182.499 27.7591 182.499 28.21H184.499ZM184.46 28.4297C184.442 28.4513 184.401 28.4947 184.329 28.5307C184.255 28.5676 184.182 28.58 184.129 28.58V26.58C183.622 26.58 183.193 26.8114 182.898 27.1803L184.46 28.4297ZM184.129 28.58H192.769V26.58H184.129V28.58ZM193.769 27.58V3.55H191.769V27.58H193.769ZM192.769 2.55H184.129V4.55H192.769V2.55ZM184.129 2.55C184.073 2.55 184.215 2.53671 184.363 2.68539C184.512 2.83407 184.499 2.97585 184.499 2.92H182.499C182.499 3.28414 182.591 3.74093 182.949 4.09961C183.308 4.45829 183.765 4.55 184.129 4.55V2.55ZM184.499 2.92V0.759997H182.499V2.92H184.499ZM184.499 0.759997C184.499 0.704143 184.512 0.845924 184.363 0.994604C184.215 1.14328 184.073 1.13 184.129 1.13V-0.870002C183.765 -0.870002 183.308 -0.778289 182.949 -0.419609C182.591 -0.0609293 182.499 0.395853 182.499 0.759997H184.499ZM184.129 1.13H204.784V-0.870002H184.129V1.13ZM204.784 1.13C204.84 1.13 204.698 1.14328 204.549 0.994604C204.401 0.845924 204.414 0.704143 204.414 0.759997H206.414C206.414 0.395853 206.322 -0.0609293 205.963 -0.419609C205.605 -0.778289 205.148 -0.870002 204.784 -0.870002V1.13ZM204.414 0.759997V2.92H206.414V0.759997H204.414ZM204.414 2.92C204.414 2.97585 204.401 2.83407 204.549 2.68539C204.698 2.53671 204.84 2.55 204.784 2.55V4.55C205.148 4.55 205.605 4.45829 205.963 4.09961C206.322 3.74093 206.414 3.28414 206.414 2.92H204.414ZM204.784 2.55H196.189V4.55H204.784V2.55ZM195.189 3.55V27.58H197.189V3.55H195.189ZM196.189 28.58H204.784V26.58H196.189V28.58ZM204.784 28.58C204.73 28.58 204.658 28.5676 204.584 28.5307C204.512 28.4947 204.47 28.4513 204.453 28.4297L206.015 27.1803C205.72 26.8114 205.29 26.58 204.784 26.58V28.58ZM204.527 28.5121C204.513 28.4981 204.482 28.4624 204.455 28.4024C204.427 28.34 204.414 28.2727 204.414 28.21H206.414C206.414 27.7591 206.222 27.3786 205.941 27.0979L204.527 28.5121ZM204.414 28.21V30.37H206.414V28.21H204.414ZM204.414 30.37C204.414 30.4259 204.401 30.2841 204.549 30.1354C204.698 29.9867 204.84 30 204.784 30V32C205.148 32 205.605 31.9083 205.963 31.5496C206.322 31.1909 206.414 30.7341 206.414 30.37H204.414ZM204.784 30H184.129V32H204.784V30ZM184.129 30C184.073 30 184.215 29.9867 184.363 30.1354C184.512 30.2841 184.499 30.4259 184.499 30.37H182.499C182.499 30.7341 182.591 31.1909 182.949 31.5496C183.308 31.9083 183.765 32 184.129 32V30ZM213.526 0.309999L212.901 -0.47087L212.858 -0.436271L212.819 -0.397108L213.526 0.309999ZM232.471 0.669999L232.052 1.57796L232.072 1.5875L232.093 1.59609L232.471 0.669999ZM234.586 2.065L233.879 2.77211V2.77211L234.586 2.065ZM235.981 4.18L235.055 4.5573L235.063 4.57838L235.073 4.59906L235.981 4.18ZM235.981 13.27L235.067 12.8639L235.061 12.8782L235.055 12.8927L235.981 13.27ZM234.586 15.385L235.275 16.11L235.284 16.1012L235.293 16.0921L234.586 15.385ZM232.471 16.78L232.86 17.701L232.869 17.6975L232.877 17.6938L232.471 16.78ZM216.766 17.275V16.275H215.766V17.275H216.766ZM213.526 30.82L212.819 31.5271L212.858 31.5663L212.901 31.6009L213.526 30.82ZM216.766 13.855H215.766V14.855H216.766V13.855ZM232.156 12.955L231.449 12.2479L232.156 12.955ZM232.156 4.495L231.432 5.18465L231.448 5.20232L231.466 5.21914L232.156 4.495ZM216.766 3.55V2.55H215.766V3.55H216.766ZM214.346 30.37V0.759997H212.346V30.37H214.346ZM214.346 0.759997C214.346 0.782716 214.342 0.828012 214.319 0.883889C214.296 0.940933 214.264 0.986264 214.233 1.0171L212.819 -0.397108C212.499 -0.0773134 212.346 0.332636 212.346 0.759997H214.346ZM214.15 1.09087C214.163 1.08101 214.154 1.09085 214.122 1.10347C214.088 1.11705 214.038 1.13 213.976 1.13V-0.870002C213.542 -0.870002 213.178 -0.692317 212.901 -0.47087L214.15 1.09087ZM213.976 1.13H229.951V-0.870002H213.976V1.13ZM229.951 1.13C230.713 1.13 231.409 1.28148 232.052 1.57796L232.89 -0.23796C231.972 -0.661489 230.988 -0.870002 229.951 -0.870002V1.13ZM232.093 1.59609C232.784 1.87739 233.376 2.26927 233.879 2.77211L235.293 1.35789C234.596 0.660727 233.778 0.12261 232.848 -0.256094L232.093 1.59609ZM233.879 2.77211C234.382 3.27494 234.773 3.86684 235.055 4.5573L236.907 3.8027C236.528 2.87315 235.99 2.05506 235.293 1.35789L233.879 2.77211ZM235.073 4.59906C235.369 5.24141 235.521 5.93764 235.521 6.7H237.521C237.521 5.66236 237.312 4.67858 236.889 3.76094L235.073 4.59906ZM235.521 6.7V10.705H237.521V6.7H235.521ZM235.521 10.705C235.521 11.4673 235.369 12.1837 235.067 12.8639L236.895 13.6761C237.312 12.7363 237.521 11.7427 237.521 10.705H235.521ZM235.055 12.8927C234.773 13.5832 234.382 14.1751 233.879 14.6779L235.293 16.0921C235.99 15.3949 236.528 14.5768 236.907 13.6473L235.055 12.8927ZM233.897 14.66C233.385 15.146 232.778 15.5492 232.065 15.8662L232.877 17.6938C233.784 17.2908 234.586 16.764 235.275 16.11L233.897 14.66ZM232.081 15.859C231.432 16.1337 230.725 16.275 229.951 16.275V18.275C230.976 18.275 231.95 18.0863 232.86 17.701L232.081 15.859ZM229.951 16.275H216.766V18.275H229.951V16.275ZM215.766 17.275V30.37H217.766V17.275H215.766ZM215.766 30.37C215.766 30.4259 215.752 30.2841 215.901 30.1354C216.05 29.9867 216.192 30 216.136 30V32C216.5 32 216.957 31.9083 217.315 31.5496C217.674 31.1909 217.766 30.7341 217.766 30.37H215.766ZM216.136 30H213.976V32H216.136V30ZM213.976 30C214.038 30 214.088 30.0129 214.122 30.0265C214.154 30.0391 214.163 30.049 214.15 30.0391L212.901 31.6009C213.178 31.8223 213.542 32 213.976 32V30ZM214.233 30.1129C214.264 30.1437 214.296 30.1891 214.319 30.2461C214.342 30.302 214.346 30.3473 214.346 30.37H212.346C212.346 30.7974 212.499 31.2073 212.819 31.5271L214.233 30.1129ZM216.766 14.855H229.951V12.855H216.766V14.855ZM229.951 14.855C231.078 14.855 232.07 14.4549 232.863 13.6621L231.449 12.2479C231.041 12.6551 230.563 12.855 229.951 12.855V14.855ZM232.863 13.6621C233.675 12.8496 234.101 11.8473 234.101 10.705H232.101C232.101 11.3027 231.896 11.8004 231.449 12.2479L232.863 13.6621ZM234.101 10.705V6.7H232.101V10.705H234.101ZM234.101 6.7C234.101 5.55632 233.674 4.5596 232.845 3.77086L231.466 5.21914C231.898 5.63039 232.101 6.10368 232.101 6.7H234.101ZM232.88 3.80534C232.091 2.97716 231.094 2.55 229.951 2.55V4.55C230.547 4.55 231.02 4.75283 231.432 5.18465L232.88 3.80534ZM229.951 2.55H216.766V4.55H229.951V2.55ZM215.766 3.55V13.855H217.766V3.55H215.766ZM247.918 3.55V2.55H246.918V3.55H247.918ZM247.918 13.855H246.918V14.855H247.918V13.855ZM264.118 14.08L263.337 14.7047L263.406 14.7915L263.493 14.8609L264.118 14.08ZM264.118 17.095L263.493 16.3141L263.45 16.3487L263.411 16.3879L264.118 17.095ZM247.918 17.275V16.275H246.918V17.275H247.918ZM247.918 27.58H246.918V28.58H247.918V27.58ZM266.593 27.805L265.812 28.4297L265.846 28.4729L265.886 28.5121L266.593 27.805ZM245.543 30.37V0.759997H243.543V30.37H245.543ZM245.543 0.759997C245.543 0.704143 245.556 0.845924 245.407 0.994604C245.259 1.14328 245.117 1.13 245.173 1.13V-0.870002C244.809 -0.870002 244.352 -0.778289 243.993 -0.419609C243.634 -0.0609293 243.543 0.395853 243.543 0.759997H245.543ZM245.173 1.13H266.143V-0.870002H245.173V1.13ZM266.143 1.13C266.199 1.13 266.057 1.14328 265.908 0.994604C265.759 0.845924 265.773 0.704143 265.773 0.759997H267.773C267.773 0.395853 267.681 -0.0609293 267.322 -0.419609C266.964 -0.778289 266.507 -0.870002 266.143 -0.870002V1.13ZM265.773 0.759997V2.92H267.773V0.759997H265.773ZM265.773 2.92C265.773 2.97585 265.759 2.83407 265.908 2.68539C266.057 2.53671 266.199 2.55 266.143 2.55V4.55C266.507 4.55 266.964 4.45829 267.322 4.09961C267.681 3.74093 267.773 3.28414 267.773 2.92H265.773ZM266.143 2.55H247.918V4.55H266.143V2.55ZM246.918 3.55V13.855H248.918V3.55H246.918ZM247.918 14.855H263.713V12.855H247.918V14.855ZM263.713 14.855C263.613 14.855 263.517 14.8279 263.441 14.7854C263.371 14.7464 263.339 14.7073 263.337 14.7047L264.899 13.4553C264.647 13.1405 264.249 12.855 263.713 12.855V14.855ZM263.493 14.8609C263.49 14.8588 263.451 14.8271 263.412 14.7569C263.37 14.6804 263.343 14.5851 263.343 14.485H265.343C265.343 13.9492 265.057 13.551 264.742 13.2991L263.493 14.8609ZM263.343 14.485V16.645H265.343V14.485H263.343ZM263.343 16.645C263.343 16.5914 263.355 16.5192 263.392 16.4453C263.428 16.3733 263.471 16.3314 263.493 16.3141L264.742 17.8759C265.111 17.5808 265.343 17.1515 265.343 16.645H263.343ZM263.411 16.3879C263.425 16.3739 263.46 16.3429 263.52 16.3162C263.583 16.2885 263.65 16.275 263.713 16.275V18.275C264.164 18.275 264.544 18.0828 264.825 17.8021L263.411 16.3879ZM263.713 16.275H247.918V18.275H263.713V16.275ZM246.918 17.275V27.58H248.918V17.275H246.918ZM247.918 28.58H266.143V26.58H247.918V28.58ZM266.143 28.58C266.089 28.58 266.017 28.5676 265.943 28.5307C265.871 28.4947 265.829 28.4513 265.812 28.4297L267.374 27.1803C267.078 26.8114 266.649 26.58 266.143 26.58V28.58ZM265.886 28.5121C265.872 28.4981 265.841 28.4624 265.814 28.4024C265.786 28.34 265.773 28.2727 265.773 28.21H267.773C267.773 27.7591 267.581 27.3786 267.3 27.0979L265.886 28.5121ZM265.773 28.21V30.37H267.773V28.21H265.773ZM265.773 30.37C265.773 30.4259 265.759 30.2841 265.908 30.1354C266.057 29.9867 266.199 30 266.143 30V32C266.507 32 266.964 31.9083 267.322 31.5496C267.681 31.1909 267.773 30.7341 267.773 30.37H265.773ZM266.143 30H245.173V32H266.143V30ZM245.173 30C245.117 30 245.259 29.9867 245.407 30.1354C245.556 30.2841 245.543 30.4259 245.543 30.37H243.543C243.543 30.7341 243.634 31.1909 243.993 31.5496C244.352 31.9083 244.809 32 245.173 32V30ZM293.156 30.415L294.084 30.0436L294.077 30.0258L294.069 30.0083L293.156 30.415ZM287.306 17.275L288.219 16.8683L287.955 16.275H287.306V17.275ZM277.676 17.275V16.275H276.676V17.275H277.676ZM293.381 0.669999L292.962 1.57796L292.982 1.5875L293.003 1.59609L293.381 0.669999ZM295.496 2.065L294.789 2.77211V2.77211L295.496 2.065ZM296.891 4.18L295.965 4.5573L295.973 4.57838L295.983 4.59906L296.891 4.18ZM296.081 14.665L295.288 14.0553L295.286 14.0583L296.081 14.665ZM292.661 17.005L292.943 17.9644L292.946 17.9634L292.661 17.005ZM291.131 17.455L290.849 16.4956L289.753 16.8178L290.217 17.8611L291.131 17.455ZM296.891 30.415L295.977 30.8211L296.002 30.877L296.033 30.9295L296.891 30.415ZM296.891 30.82L296.091 30.22L296.037 30.2921L295.996 30.3728L296.891 30.82ZM293.516 30.82L294.07 29.9879L293.516 30.82ZM277.676 13.855H276.676V14.855H277.676V13.855ZM293.066 12.955L292.359 12.2479L293.066 12.955ZM293.066 4.495L292.342 5.18465L292.358 5.20232L292.376 5.21914L293.066 4.495ZM277.676 3.55V2.55H276.676V3.55H277.676ZM294.069 30.0083L288.219 16.8683L286.392 17.6817L292.242 30.8217L294.069 30.0083ZM287.306 16.275H277.676V18.275H287.306V16.275ZM276.676 17.275V30.37H278.676V17.275H276.676ZM276.676 30.37C276.676 30.4259 276.662 30.2841 276.811 30.1354C276.96 29.9867 277.102 30 277.046 30V32C277.41 32 277.867 31.9083 278.225 31.5496C278.584 31.1909 278.676 30.7341 278.676 30.37H276.676ZM277.046 30H274.931V32H277.046V30ZM274.931 30C274.875 30 275.017 29.9867 275.165 30.1354C275.314 30.2841 275.301 30.4259 275.301 30.37H273.301C273.301 30.7341 273.392 31.1909 273.751 31.5496C274.11 31.9083 274.567 32 274.931 32V30ZM275.301 30.37V0.759997H273.301V30.37H275.301ZM275.301 0.759997C275.301 0.704143 275.314 0.845924 275.165 0.994604C275.017 1.14328 274.875 1.13 274.931 1.13V-0.870002C274.567 -0.870002 274.11 -0.778289 273.751 -0.419609C273.392 -0.0609293 273.301 0.395853 273.301 0.759997H275.301ZM274.931 1.13H290.861V-0.870002H274.931V1.13ZM290.861 1.13C291.623 1.13 292.319 1.28148 292.962 1.57796L293.8 -0.23796C292.882 -0.661489 291.898 -0.870002 290.861 -0.870002V1.13ZM293.003 1.59609C293.694 1.87739 294.286 2.26927 294.789 2.77211L296.203 1.35789C295.506 0.660727 294.688 0.12261 293.758 -0.256094L293.003 1.59609ZM294.789 2.77211C295.291 3.27494 295.683 3.86684 295.965 4.5573L297.817 3.8027C297.438 2.87315 296.9 2.05506 296.203 1.35789L294.789 2.77211ZM295.983 4.59906C296.279 5.24141 296.431 5.93764 296.431 6.7H298.431C298.431 5.66236 298.222 4.67858 297.799 3.76094L295.983 4.59906ZM296.431 6.7V10.705H298.431V6.7H296.431ZM296.431 10.705C296.431 11.9535 296.054 13.0593 295.288 14.0553L296.873 15.2747C297.907 13.9307 298.431 12.3965 298.431 10.705H296.431ZM295.286 14.0583C294.548 15.0255 293.588 15.6853 292.375 16.0466L292.946 17.9634C294.553 17.4847 295.874 16.5845 296.876 15.2717L295.286 14.0583ZM292.379 16.0456L290.849 16.4956L291.413 18.4144L292.943 17.9644L292.379 16.0456ZM290.217 17.8611L295.977 30.8211L297.805 30.0089L292.045 17.0489L290.217 17.8611ZM296.033 30.9295C296.012 30.8941 295.958 30.7887 295.958 30.6287C295.958 30.4559 296.021 30.3129 296.091 30.22L297.691 31.42C297.85 31.2071 297.958 30.9366 297.958 30.6287C297.958 30.3338 297.859 30.0859 297.748 29.9005L296.033 30.9295ZM295.996 30.3728C296.063 30.2393 296.175 30.1273 296.309 30.0606C296.426 30.0016 296.516 30 296.531 30V32C296.939 32 297.497 31.8427 297.785 31.2672L295.996 30.3728ZM296.531 30H294.056V32H296.531V30ZM294.056 30C294.067 30 294.077 30.0009 294.085 30.0024C294.094 30.0038 294.099 30.0055 294.102 30.0063C294.107 30.008 294.097 30.0054 294.07 29.9879L292.961 31.6521C293.272 31.8591 293.641 32 294.056 32V30ZM294.07 29.9879C294.038 29.9663 294.031 29.9569 294.038 29.9644C294.046 29.9732 294.066 29.9993 294.084 30.0436L292.227 30.7864C292.384 31.1783 292.669 31.4572 292.961 31.6521L294.07 29.9879ZM277.676 14.855H290.861V12.855H277.676V14.855ZM290.861 14.855C291.988 14.855 292.98 14.4549 293.773 13.6621L292.359 12.2479C291.951 12.6551 291.473 12.855 290.861 12.855V14.855ZM293.773 13.6621C294.585 12.8496 295.011 11.8473 295.011 10.705H293.011C293.011 11.3027 292.806 11.8004 292.359 12.2479L293.773 13.6621ZM295.011 10.705V6.7H293.011V10.705H295.011ZM295.011 6.7C295.011 5.55632 294.584 4.5596 293.755 3.77086L292.376 5.21914C292.808 5.63039 293.011 6.10368 293.011 6.7H295.011ZM293.79 3.80534C293.001 2.97716 292.004 2.55 290.861 2.55V4.55C291.457 4.55 291.93 4.75283 292.342 5.18465L293.79 3.80534ZM290.861 2.55H277.676V4.55H290.861V2.55ZM276.676 3.55V13.855H278.676V3.55H276.676Z" fill="white" mask="url(#path-1-outside-1_391_777)"/>
</svg>
